# xmcd
#
# Track frame offsets: 
#        150
#        1055
#        14731
#        17645
#        30095
#        32361
#        45101
#        57966
#        58869
#        72099
#        75488
#        87143
#        91006
#        111135
#        123621
#        128555
#        146086
#        150339
#        169645
#        180621
#        200598
#        203055
#        215555
#        219034
#        232678
#        233864
#        250148
#        256564
#        272151
#        275286
#        288570
#        300049
#        307283
#        319587
#        323196
#        337029
#        340894
#
# Disc length: 4676 seconds
#
# Revision: 0
# Processed by: cddbd v1.5.2PL0 Copyright (c) Steve Scherf et al.
# Submitted via: ExactAudioCopyFreeDBPlugin 1.0
#
DISCID=e5124225
DTITLE=Thom Shepherd - Live in Key West
DYEAR=1900
DGENRE=Country
TTITLE0=Stand by For Country
TTITLE1=Beer Season
TTITLE2=Country Squire Intro
TTITLE3=Country Squire
TTITLE4=Tequila Sheila Intro
TTITLE5=Tequila Sheila
TTITLE6=I'd Still Have Everything
TTITLE7=Cheaper to Keep Her Intro
TTITLE8=Cheaper to Keep Her
TTITLE9=Hip Hop in a Honky Tonk Intro
TTITLE10=Hip Hop in a Honky Tonk
TTITLE11=Riding with Private Malone Intro
TTITLE12=Riding with Private Malone
TTITLE13=Riding with Private Malone History
TTITLE14=Riding with Inmate Jerome Intro
TTITLE15=Riding with Inmate Jermone
TTITLE16=Last Letter Home Intro
TTITLE17=Last Letter Home
TTITLE18=Djibouti Intro
TTITLE19=Djibouti
TTITLE20=My Texas Intro
TTITLE21=My Texas
TTITLE22=The Only Way He Knew How Intor
TTITLE23=The Only Way He Knew How
TTITLE24=Redneck Yacht Club Intor
TTITLE25=Redneck Yacht Club
TTITLE26=Pier Pressure Intro
TTITLE27=Pier Pressure
TTITLE28=Painting Coconuts in Paradise Intro
TTITLE29=Painting Coconuts in Paradise
TTITLE30=Drunk I am
TTITLE31=She Likes to Ride in Trucks Intro
TTITLE32=She Likes to Ride in Trucks
TTITLE33=Drinkin' and Dialin' Intro
TTITLE34=Drinkin' and Dialin'
TTITLE35=Parrothead Intro
TTITLE36=Parrothead
EXTD=
EXTT0=
EXTT1=
EXTT2=
EXTT3=
EXTT4=
EXTT5=
EXTT6=
EXTT7=
EXTT8=
EXTT9=
EXTT10=
EXTT11=
EXTT12=
EXTT13=
EXTT14=
EXTT15=
EXTT16=
EXTT17=
EXTT18=
EXTT19=
EXTT20=
EXTT21=
EXTT22=
EXTT23=
EXTT24=
EXTT25=
EXTT26=
EXTT27=
EXTT28=
EXTT29=
EXTT30=
EXTT31=
EXTT32=
EXTT33=
EXTT34=
EXTT35=
EXTT36=
PLAYORDER=
